<svg xmlns="http://www.w3.org/2000/svg" viewBox="0 0 24 24" width="24" height="24">
    <path fill="#FFFFFF" d="M12 2.162c3.188 0 3.576.012 4.843.07 1.464.066 2.818.322 3.817 1.32.999.998 1.255 2.353 1.32 3.817.057 1.267.07 1.655.07 4.843s-.012 3.576-.07 4.843c-.066 1.464-.322 2.818-1.32 3.817-.999.999-2.353 1.255-3.817 1.32-1.267.057-1.655.07-4.843.07s-3.576-.012-4.843-.07c-1.464-.066-2.818-.322-3.817-1.32C2.175 20.71 1.919 19.356 1.854 17.892A22.099 22.099 0 001.775 13c.065-1.464.32-2.818 1.318-3.817.999-.999 2.353-1.255 3.817-1.32 1.267-.057 1.655-.07 4.843-.07zM12 4.91a7.085 7.085 0 0 0-7.09 7.09c0 3.916 3.174 7.09 7.09 7.09 3.916 0 7.09-3.174 7.09-7.09 0-3.916-3.174-7.09-7.09-7.09zm0 12.818a5.728 5.728 0 1 1 0-11.456 5.728 5.728 0 0 1 0 11.456zm4.545-10.636a1.44 1.44 0 1 0 0-2.879 1.44 1.44 0 0 0 0 2.879z"/>
</svg>
