<svg xmlns="http://www.w3.org/2000/svg" viewBox="0 0 24 24" width="24" height="24">
    <path fill="#FFFFFF" d="M22.225 0h-20.45C.996 0 0 .996 0 2.225v19.55C0 23.004.996 24 2.225 24h20.45C23.004 24 24 23.004 24 22.225v-19.55C24 .996 23.004 0 22.225 0zM7.1 20.452H3.542V9H7.1v11.452zM5.32 7.565a2.019 2.019 0 1 1 0-4.038 2.019 2.019 0 0 1 0 4.038zM20.454 20.452h-3.558v-5.954c0-1.423-.027-3.248-1.977-3.248-1.979 0-2.285 1.543-2.285 3.137v6.065H10.084V9h3.415v1.55h.049c.476-.902 1.632-1.854 3.351-1.854 3.586 0 4.248 2.364 4.248 5.441v6.314z"/>
</svg>